<?xml version="1.0" encoding="UTF-8" standalone="no"?>
<!DOCTYPE svg PUBLIC "-//W3C//DTD SVG 1.1//EN" "http://www.w3.org/Graphics/SVG/1.1/DTD/svg11.dtd">
<!-- Gerado pelo Microsoft Visio, SVG Export microarquitetura.svg Page-1 -->
<svg xmlns="http://www.w3.org/2000/svg" xmlns:xlink="http://www.w3.org/1999/xlink" xmlns:ev="http://www.w3.org/2001/xml-events"
		xmlns:v="http://schemas.microsoft.com/visio/2003/SVGExtensions/" width="22.8858in" height="8.26772in"
		viewBox="0 0 1647.78 595.276" xml:space="preserve" color-interpolation-filters="sRGB" class="st21">
	<v:documentProperties v:langID="1046" v:metric="true" v:viewMarkup="false">
		<v:userDefs>
			<v:ud v:nameU="msvSubprocessMaster" v:prompt="" v:val="VT4(Rectangle)"/>
			<v:ud v:nameU="msvNoAutoConnect" v:val="VT0(1):26"/>
		</v:userDefs>
	</v:documentProperties>

	<style type="text/css">
	<![CDATA[
		.st1 {visibility:visible}
		.st2 {fill:#5b9bd5;fill-opacity:0.22;filter:url(#filter_2);stroke:#5b9bd5;stroke-opacity:0.22}
		.st3 {fill:#d8d8d8;stroke:#000000;stroke-width:1}
		.st4 {fill:#000000;font-family:Calibri;font-size:1.99999em}
		.st5 {font-size:1em}
		.st6 {marker-start:url(#mrkr4-13);stroke:#000000;stroke-linecap:round;stroke-linejoin:round;stroke-width:1}
		.st7 {fill:#000000;fill-opacity:1;stroke:#000000;stroke-opacity:1;stroke-width:0.28409090909091}
		.st8 {fill:none;stroke:none;stroke-width:0.25}
		.st9 {fill:#000000;font-family:Calibri;font-size:1.33333em}
		.st10 {fill:#000000;font-family:Calibri;font-size:1.5em}
		.st11 {marker-end:url(#mrkr4-47);stroke:#000000;stroke-linecap:round;stroke-linejoin:round;stroke-width:1}
		.st12 {marker-start:url(#mrkr4-53);stroke:#000000;stroke-linecap:round;stroke-linejoin:round;stroke-opacity:0.99;stroke-width:1}
		.st13 {fill:#000000;fill-opacity:0.99;stroke:#000000;stroke-opacity:0.99;stroke-width:0.28409090909091}
		.st14 {marker-end:url(#mrkr4-112);stroke:#000000;stroke-linecap:round;stroke-linejoin:round;stroke-width:1.5}
		.st15 {fill:#000000;fill-opacity:1;stroke:#000000;stroke-opacity:1;stroke-width:0.37313432835821}
		.st16 {marker-start:url(#mrkr4-118);stroke:#000000;stroke-linecap:round;stroke-linejoin:round;stroke-width:1.5}
		.st17 {stroke:#000000;stroke-linecap:round;stroke-linejoin:round;stroke-width:1}
		.st18 {fill:#000000;stroke:#000000;stroke-width:0.25}
		.st19 {stroke:#a5a5a5;stroke-dasharray:7,5;stroke-linecap:round;stroke-linejoin:round;stroke-width:1}
		.st20 {fill:#000000;font-family:Calibri;font-size:1.5em;font-weight:bold}
		.st21 {fill:none;fill-rule:evenodd;font-size:12px;overflow:visible;stroke-linecap:square;stroke-miterlimit:3}
	]]>
	</style>

	<defs id="Markers">
		<g id="lend4">
			<path d="M 2 1 L 0 0 L 2 -1 L 2 1 " style="stroke:none"/>
		</g>
		<marker id="mrkr4-13" class="st7" v:arrowType="4" v:arrowSize="2" v:setback="6.68" refX="6.68" orient="auto"
				markerUnits="strokeWidth" overflow="visible">
			<use xlink:href="#lend4" transform="scale(3.52) "/>
		</marker>
		<marker id="mrkr4-47" class="st7" v:arrowType="4" v:arrowSize="2" v:setback="7.04" refX="-7.04" orient="auto"
				markerUnits="strokeWidth" overflow="visible">
			<use xlink:href="#lend4" transform="scale(-3.52,-3.52) "/>
		</marker>
		<marker id="mrkr4-53" class="st13" v:arrowType="4" v:arrowSize="2" v:setback="6.68" refX="6.68" orient="auto"
				markerUnits="strokeWidth" overflow="visible">
			<use xlink:href="#lend4" transform="scale(3.52) "/>
		</marker>
		<marker id="mrkr4-112" class="st15" v:arrowType="4" v:arrowSize="2" v:setback="5.36" refX="-5.36" orient="auto"
				markerUnits="strokeWidth" overflow="visible">
			<use xlink:href="#lend4" transform="scale(-2.68,-2.68) "/>
		</marker>
		<marker id="mrkr4-118" class="st15" v:arrowType="4" v:arrowSize="2" v:setback="5.12" refX="5.12" orient="auto"
				markerUnits="strokeWidth" overflow="visible">
			<use xlink:href="#lend4" transform="scale(2.68) "/>
		</marker>
	</defs>
	<defs id="Filters">
		<filter id="filter_2">
			<feGaussianBlur stdDeviation="2"/>
		</filter>
	</defs>
	<g v:mID="0" v:index="1" v:groupContext="foregroundPage">
		<v:userDefs>
			<v:ud v:nameU="msvThemeOrder" v:val="VT0(0):26"/>
		</v:userDefs>
		<title>Página-1</title>
		<v:pageProperties v:drawingScale="0.0393701" v:pageScale="0.0393701" v:drawingUnits="24" v:shadowOffsetX="8.50394"
				v:shadowOffsetY="-8.50394"/>
		<g id="shape6-1" v:mID="6" v:groupContext="shape" transform="translate(720.293,-170.362)">
			<title>Retângulo.6</title>
			<desc>Traffic Injector</desc>
			<v:userDefs>
				<v:ud v:nameU="visVersion" v:val="VT0(15):26"/>
			</v:userDefs>
			<v:textBlock v:margins="rect(4,4,4,4)" v:tabSpace="42.5197"/>
			<v:textRect cx="74.3575" cy="439.512" width="148.72" height="311.528"/>
			<g id="shadow6-2" v:groupContext="shadow" v:shadowOffsetX="0.345598" v:shadowOffsetY="-1.97279" v:shadowType="1"
					transform="matrix(1,0,0,1,0.345598,1.97279)" class="st1">
				<rect x="0" y="283.748" width="148.715" height="311.528" class="st2"/>
			</g>
			<rect x="0" y="283.748" width="148.715" height="311.528" class="st3"/>
			<text x="43.43" y="432.31" class="st4" v:langID="1033"><v:paragraph v:horizAlign="1"/><v:tabList/>Traffic<v:newlineChar/><tspan
						x="36.58" dy="1.2em" class="st5">Injector</tspan></text>		</g>
		<g id="shape14-8" v:mID="14" v:groupContext="shape" transform="translate(538.927,-232.515) rotate(-0.181336)">
			<title>Planilha.14</title>
			<path d="M6.68 595.28 L7.04 595.28 L179.14 595.28" class="st6"/>
		</g>
		<g id="shape15-14" v:mID="15" v:groupContext="shape" transform="translate(538.927,-203.318) rotate(-0.181336)">
			<title>Planilha.15</title>
			<path d="M6.68 595.28 L7.04 595.28 L179.14 595.28" class="st6"/>
		</g>
		<g id="shape17-19" v:mID="17" v:groupContext="shape" transform="translate(536.315,-380.369)">
			<title>Planilha.17</title>
			<desc>IDLE_number</desc>
			<v:textBlock v:margins="rect(4,4,4,4)" v:tabSpace="42.5197"/>
			<v:textRect cx="92.8349" cy="586.172" width="185.67" height="18.2065"/>
			<rect x="0" y="577.069" width="185.67" height="18.2065" class="st8"/>
			<text x="48.87" y="590.97" class="st9" v:langID="1033"><v:paragraph v:horizAlign="1"/><v:tabList/>IDLE_number</text>		</g>
		<g id="shape18-22" v:mID="18" v:groupContext="shape" transform="translate(622.186,-296.09)">
			<title>Planilha.18</title>
			<rect x="0" y="575.276" width="96.1307" height="20" class="st8"/>
		</g>
		<g id="shape20-24" v:mID="20" v:groupContext="shape" transform="translate(538.771,-232.47)">
			<title>Planilha.20</title>
			<desc>PKT_rx</desc>
			<v:textBlock v:margins="rect(4,4,4,4)" v:tabSpace="42.5197"/>
			<v:textRect cx="92.8349" cy="585.276" width="185.67" height="20"/>
			<rect x="0" y="575.276" width="185.67" height="20" class="st8"/>
			<text x="70.41" y="590.08" class="st9" v:langID="1033"><v:paragraph v:horizAlign="1"/><v:tabList/>PKT_rx</text>		</g>
		<g id="shape21-27" v:mID="21" v:groupContext="shape" transform="translate(537.6,-202.564)">
			<title>Planilha.21</title>
			<desc>latency</desc>
			<v:textBlock v:margins="rect(4,4,4,4)" v:tabSpace="42.5197"/>
			<v:textRect cx="92.8349" cy="585.276" width="185.67" height="20"/>
			<rect x="0" y="575.276" width="185.67" height="20" class="st8"/>
			<text x="69.3" y="590.08" class="st9" v:langID="1033"><v:paragraph v:horizAlign="1"/><v:tabList/>latency</text>		</g>
		<g id="shape25-30" v:mID="25" v:groupContext="shape" transform="translate(1076.42,-291.497)">
			<title>Retângulo.25</title>
			<desc>Echo Generator</desc>
			<v:userDefs>
				<v:ud v:nameU="visVersion" v:val="VT0(15):26"/>
			</v:userDefs>
			<v:textBlock v:margins="rect(4,4,4,4)" v:tabSpace="42.5197"/>
			<v:textRect cx="63.7795" cy="556.299" width="127.56" height="77.9528"/>
			<g id="shadow25-31" v:groupContext="shadow" v:shadowOffsetX="0.345598" v:shadowOffsetY="-1.97279" v:shadowType="1"
					transform="matrix(1,0,0,1,0.345598,1.97279)" class="st1">
				<rect x="0" y="517.323" width="127.559" height="77.9528" class="st2"/>
			</g>
			<rect x="0" y="517.323" width="127.559" height="77.9528" class="st3"/>
			<text x="6.36" y="561.7" class="st10" v:langID="1033"><v:paragraph v:horizAlign="1"/><v:tabList/>Echo Generator</text>		</g>
		<g id="shape26-36" v:mID="26" v:groupContext="shape" transform="translate(1076.42,-403.685)">
			<title>Retângulo.26</title>
			<desc>MAC</desc>
			<v:userDefs>
				<v:ud v:nameU="visVersion" v:val="VT0(15):26"/>
			</v:userDefs>
			<v:textBlock v:margins="rect(4,4,4,4)" v:tabSpace="42.5197"/>
			<v:textRect cx="138.137" cy="576.85" width="276.28" height="36.8504"/>
			<g id="shadow26-37" v:groupContext="shadow" v:shadowOffsetX="0.345598" v:shadowOffsetY="-1.97279" v:shadowType="1"
					transform="matrix(1,0,0,1,0.345598,1.97279)" class="st1">
				<rect x="0" y="558.425" width="276.274" height="36.8504" class="st2"/>
			</g>
			<rect x="0" y="558.425" width="276.274" height="36.8504" class="st3"/>
			<text x="114.54" y="584.05" class="st4" v:langID="1033"><v:paragraph v:horizAlign="1"/><v:tabList/>MAC</text>		</g>
		<g id="shape32-42" v:mID="32" v:groupContext="shape" transform="translate(869.306,-310.181) rotate(-0.0589877)">
			<title>Planilha.32</title>
			<path d="M0 595.28 L199.46 595.28" class="st11"/>
		</g>
		<g id="shape33-48" v:mID="33" v:groupContext="shape" transform="translate(868.149,-429.684) rotate(-0.0826552)">
			<title>Planilha.33</title>
			<path d="M6.68 595.28 L7.04 595.28 L207.41 595.28" class="st12"/>
		</g>
		<g id="shape37-54" v:mID="37" v:groupContext="shape" transform="translate(868.149,-415.511) rotate(-0.0826552)">
			<title>Planilha.37</title>
			<path d="M6.68 595.28 L7.04 595.28 L207.41 595.28" class="st12"/>
		</g>
		<g id="shape41-59" v:mID="41" v:groupContext="shape" transform="translate(869.008,-310.449)">
			<title>Planilha.41</title>
			<desc>PKT_gen</desc>
			<v:textBlock v:margins="rect(4,4,4,4)" v:tabSpace="42.5197"/>
			<v:textRect cx="102.945" cy="585.276" width="205.89" height="20"/>
			<rect x="0" y="575.276" width="205.89" height="20" class="st8"/>
			<text x="71.31" y="590.68" class="st10" v:langID="1033"><v:paragraph v:horizAlign="1"/><v:tabList/>PKT_gen</text>		</g>
		<g id="shape42-62" v:mID="42" v:groupContext="shape" transform="translate(869.008,-429.37)">
			<title>Planilha.42</title>
			<desc>TX_EOF</desc>
			<v:textBlock v:margins="rect(4,4,4,4)" v:tabSpace="42.5197"/>
			<v:textRect cx="102.945" cy="585.276" width="205.89" height="20"/>
			<rect x="0" y="575.276" width="205.89" height="20" class="st8"/>
			<text x="74.92" y="590.68" class="st10" v:langID="1033"><v:paragraph v:horizAlign="1"/><v:tabList/>TX_EOF</text>		</g>
		<g id="shape43-65" v:mID="43" v:groupContext="shape" transform="translate(869.326,-396.85)">
			<title>Planilha.43</title>
			<desc>RX_EOF</desc>
			<v:textBlock v:margins="rect(4,4,4,4)" v:tabSpace="42.5197"/>
			<v:textRect cx="102.945" cy="585.276" width="205.89" height="20"/>
			<rect x="0" y="575.276" width="205.89" height="20" class="st8"/>
			<text x="74.42" y="590.68" class="st10" v:langID="1033"><v:paragraph v:horizAlign="1"/><v:tabList/>RX_EOF</text>		</g>
		<g id="shape65-68" v:mID="65" v:groupContext="shape" transform="translate(543.637,-348.732) rotate(0.271984)">
			<title>Planilha.65</title>
			<path d="M0 595.28 L172.1 595.28" class="st11"/>
		</g>
		<g id="shape66-73" v:mID="66" v:groupContext="shape" transform="translate(537.6,-348.69)">
			<title>Planilha.66</title>
			<desc>TIMEOUT_number</desc>
			<v:textBlock v:margins="rect(4,4,4,4)" v:tabSpace="42.5197"/>
			<v:textRect cx="92.8349" cy="585.276" width="185.67" height="20"/>
			<rect x="0" y="575.276" width="185.67" height="20" class="st8"/>
			<text x="32.09" y="590.08" class="st9" v:langID="1033"><v:paragraph v:horizAlign="1"/><v:tabList/>TIMEOUT_number</text>		</g>
		<g id="shape84-76" v:mID="84" v:groupContext="shape" transform="translate(541.517,-318.974) rotate(0.0679902)">
			<title>Planilha.84</title>
			<path d="M0 595.28 L172.1 595.28" class="st11"/>
		</g>
		<g id="shape142-81" v:mID="142" v:groupContext="shape" transform="translate(536.101,-379.901) rotate(-0.453322)">
			<title>Planilha.142</title>
			<path d="M0 595.28 L172.1 595.28" class="st11"/>
		</g>
		<g id="shape145-86" v:mID="145" v:groupContext="shape" transform="translate(537.6,-404.941)">
			<title>Planilha.145</title>
			<desc>PKT_number</desc>
			<v:textBlock v:margins="rect(4,4,4,4)" v:tabSpace="42.5197"/>
			<v:textRect cx="92.8349" cy="586.172" width="185.67" height="18.2065"/>
			<rect x="0" y="577.069" width="185.67" height="18.2065" class="st8"/>
			<text x="50.89" y="590.97" class="st9" v:langID="1033"><v:paragraph v:horizAlign="1"/><v:tabList/>PKT_number</text>		</g>
		<g id="shape146-89" v:mID="146" v:groupContext="shape" transform="translate(540.189,-404.581)">
			<title>Planilha.146</title>
			<path d="M0 595.28 L172.56 595.28" class="st11"/>
		</g>
		<g id="shape159-94" v:mID="159" v:groupContext="shape" transform="translate(1225.13,-291.497)">
			<title>Retângulo.159</title>
			<desc>Echo Receiver</desc>
			<v:userDefs>
				<v:ud v:nameU="visVersion" v:val="VT0(15):26"/>
			</v:userDefs>
			<v:textBlock v:margins="rect(4,4,4,4)" v:tabSpace="42.5197"/>
			<v:textRect cx="63.7795" cy="556.299" width="127.56" height="77.9528"/>
			<g id="shadow159-95" v:groupContext="shadow" v:shadowOffsetX="0.345598" v:shadowOffsetY="-1.97279" v:shadowType="1"
					transform="matrix(1,0,0,1,0.345598,1.97279)" class="st1">
				<rect x="0" y="517.323" width="127.559" height="77.9528" class="st2"/>
			</g>
			<rect x="0" y="517.323" width="127.559" height="77.9528" class="st3"/>
			<text x="46.1" y="550.9" class="st10" v:langID="1033"><v:paragraph v:horizAlign="1"/><v:tabList/>Echo <v:newlineChar/><tspan
						x="32.38" dy="1.2em" class="st5">Receiver</tspan></text>		</g>
		<g id="shape160-101" v:mID="160" v:groupContext="shape" transform="translate(1076.42,-460.378)">
			<title>Retângulo.160</title>
			<desc>PCS</desc>
			<v:userDefs>
				<v:ud v:nameU="visVersion" v:val="VT0(15):26"/>
			</v:userDefs>
			<v:textBlock v:margins="rect(4,4,4,4)" v:tabSpace="42.5197"/>
			<v:textRect cx="138.137" cy="576.85" width="276.28" height="36.8504"/>
			<g id="shadow160-102" v:groupContext="shadow" v:shadowOffsetX="0.345598" v:shadowOffsetY="-1.97279" v:shadowType="1"
					transform="matrix(1,0,0,1,0.345598,1.97279)" class="st1">
				<rect x="0" y="558.425" width="276.274" height="36.8504" class="st2"/>
			</g>
			<rect x="0" y="558.425" width="276.274" height="36.8504" class="st3"/>
			<text x="120.03" y="584.05" class="st4" v:langID="1033"><v:paragraph v:horizAlign="1"/><v:tabList/>PCS</text>		</g>
		<g id="shape195-107" v:mID="195" v:groupContext="shape" transform="translate(516.472,154.009) rotate(-90)">
			<title>Planilha.195</title>
			<path d="M0 595.28 L11.07 595.28" class="st14"/>
		</g>
		<g id="shape196-113" v:mID="196" v:groupContext="shape" transform="translate(729.071,154.74) rotate(-90)">
			<title>Planilha.196</title>
			<path d="M7.68 595.28 L8.04 595.28 L18.46 595.28" class="st16"/>
		</g>
		<g id="shape225-119" v:mID="225" v:groupContext="shape" transform="translate(538.249,-320.234)">
			<title>Planilha.225</title>
			<desc>PKT_timestamp_pos</desc>
			<v:textBlock v:margins="rect(4,4,4,4)" v:tabSpace="42.5197"/>
			<v:textRect cx="92.8349" cy="585.276" width="185.67" height="20"/>
			<rect x="0" y="575.276" width="185.67" height="20" class="st8"/>
			<text x="26.01" y="590.08" class="st9" v:langID="1033"><v:paragraph v:horizAlign="1"/><v:tabList/>PKT_timestamp_pos</text>		</g>
		<g id="shape246-122" v:mID="246" v:groupContext="shape" transform="translate(870.608,-272.767) rotate(0.0994464)">
			<title>Planilha.246</title>
			<path d="M0 595.28 L369.73 595.28" class="st17"/>
		</g>
		<g id="shape247-125" v:mID="247" v:groupContext="shape" transform="translate(869.008,-274.161)">
			<title>Planilha.247</title>
			<desc>PKT_timestamp_flag</desc>
			<v:textBlock v:margins="rect(4,4,4,4)" v:tabSpace="42.5197"/>
			<v:textRect cx="102.945" cy="585.276" width="205.89" height="20"/>
			<rect x="0" y="575.276" width="205.89" height="20" class="st8"/>
			<text x="27.4" y="590.68" class="st10" v:langID="1033"><v:paragraph v:horizAlign="1"/><v:tabList/>PKT_timestamp_flag</text>		</g>
		<g id="shape248-128" v:mID="248" v:groupContext="shape" transform="translate(1834.58,303.386) rotate(90)">
			<title>Planilha.248</title>
			<path d="M6.68 595.28 L7.04 595.28 L19.84 595.28" class="st6"/>
		</g>
		<g id="shape250-133" v:mID="250" v:groupContext="shape" transform="translate(869.008,-202.677) rotate(6.88894E-008)">
			<title>Planilha.250</title>
			<path d="M6.68 595.28 L7.04 595.28 L449.67 595.28" class="st6"/>
		</g>
		<g id="shape251-138" v:mID="251" v:groupContext="shape" transform="translate(869.008,-177.165)">
			<title>Planilha.251</title>
			<desc>PKT_timestamp</desc>
			<v:textBlock v:margins="rect(4,4,4,4)" v:tabSpace="42.5197"/>
			<v:textRect cx="102.945" cy="585.276" width="205.89" height="20"/>
			<rect x="0" y="575.276" width="205.89" height="20" class="st8"/>
			<text x="45.24" y="590.68" class="st10" v:langID="1033"><v:paragraph v:horizAlign="1"/><v:tabList/>PKT_timestamp</text>		</g>
		<g id="shape252-141" v:mID="252" v:groupContext="shape" transform="translate(869.008,-177.165) rotate(6.59779E-008)">
			<title>Planilha.252</title>
			<path d="M6.68 595.28 L7.04 595.28 L469.51 595.28" class="st6"/>
		</g>
		<g id="shape253-146" v:mID="253" v:groupContext="shape" transform="translate(869.008,-202.598)">
			<title>Planilha.253</title>
			<desc>PKT_timestamp_val</desc>
			<v:textBlock v:margins="rect(4,4,4,4)" v:tabSpace="42.5197"/>
			<v:textRect cx="102.945" cy="585.276" width="205.89" height="20"/>
			<rect x="0" y="575.276" width="205.89" height="20" class="st8"/>
			<text x="30.32" y="590.68" class="st10" v:langID="1033"><v:paragraph v:horizAlign="1"/><v:tabList/>PKT_timestamp_val</text>		</g>
		<g id="shape254-149" v:mID="254" v:groupContext="shape" transform="translate(1091.91,-269.291)">
			<title>Círculo</title>
			<v:userDefs>
				<v:ud v:nameU="visVersion" v:val="VT0(15):26"/>
			</v:userDefs>
			<g id="shadow254-150" v:groupContext="shadow" v:shadowOffsetX="0.345598" v:shadowOffsetY="-1.97279" v:shadowType="1"
					transform="matrix(1,0,0,1,0.345598,1.97279)" class="st1">
				<path d="M0 592.44 A2.83465 2.83465 0 0 1 5.67 592.44 A2.83465 2.83465 0 1 1 0 592.44 Z" class="st2"/>
			</g>
			<path d="M0 592.44 A2.83465 2.83465 0 0 1 5.67 592.44 A2.83465 2.83465 0 1 1 0 592.44 Z" class="st18"/>
		</g>
		<g id="shape271-154" v:mID="271" v:groupContext="shape" transform="translate(391.474,-189.148)">
			<title>Retângulo.271</title>
			<desc>uPC Interface</desc>
			<v:userDefs>
				<v:ud v:nameU="visVersion" v:val="VT0(15):26"/>
			</v:userDefs>
			<v:textBlock v:margins="rect(4,4,4,4)" v:tabSpace="42.5197"/>
			<v:textRect cx="74.3575" cy="465.945" width="148.72" height="258.661"/>
			<g id="shadow271-155" v:groupContext="shadow" v:shadowOffsetX="0.345598" v:shadowOffsetY="-1.97279" v:shadowType="1"
					transform="matrix(1,0,0,1,0.345598,1.97279)" class="st1">
				<rect x="0" y="336.614" width="148.715" height="258.661" class="st2"/>
			</g>
			<rect x="0" y="336.614" width="148.715" height="258.661" class="st3"/>
			<text x="55.46" y="458.75" class="st4" v:langID="1033"><v:paragraph v:horizAlign="1"/><v:tabList/>uPC<v:newlineChar/><tspan
						x="30.4" dy="1.2em" class="st5">Interface</tspan></text>		</g>
		<g id="shape273-161" v:mID="273" v:groupContext="shape" transform="translate(1423.56,666.394) rotate(180)">
			<title>Planilha.273</title>
			<path d="M0 595.28 L425.2 595.28" class="st19"/>
		</g>
		<g id="shape274-164" v:mID="274" v:groupContext="shape" transform="translate(1150.78,-532.835)">
			<title>Planilha.274</title>
			<desc>PHY INTERFACE</desc>
			<v:textBlock v:margins="rect(4,4,4,4)" v:tabSpace="42.5197"/>
			<v:textRect cx="63.7795" cy="585.276" width="127.56" height="20"/>
			<rect x="0" y="575.276" width="127.559" height="20" class="st8"/>
			<text x="5.62" y="590.68" class="st20" v:langID="1033"><v:paragraph v:horizAlign="1"/><v:tabList/>PHY INTERFACE</text>		</g>
		<g id="shape275-167" v:mID="275" v:groupContext="shape" transform="translate(537.497,-293.552)">
			<title>Planilha.275</title>
			<desc>PKT_sequence</desc>
			<v:textBlock v:margins="rect(4,4,4,4)" v:tabSpace="42.5197"/>
			<v:textRect cx="92.8349" cy="586.172" width="185.67" height="18.2065"/>
			<rect x="0" y="577.069" width="185.67" height="18.2065" class="st8"/>
			<text x="45.6" y="590.97" class="st9" v:langID="1033"><v:paragraph v:horizAlign="1"/><v:tabList/>PKT_sequence</text>		</g>
		<g id="shape276-170" v:mID="276" v:groupContext="shape" transform="translate(540.105,-293.191)">
			<title>Planilha.276</title>
			<path d="M0 595.28 L172.56 595.28" class="st11"/>
		</g>
		<g id="shape279-175" v:mID="279" v:groupContext="shape" transform="translate(516.472,98.0472) rotate(-90)">
			<title>Planilha.279</title>
			<path d="M0 595.28 L40.15 595.28" class="st14"/>
		</g>
		<g id="shape280-180" v:mID="280" v:groupContext="shape" transform="translate(729.071,98.0472) rotate(-90)">
			<title>Planilha.280</title>
			<path d="M7.68 595.28 L8.04 595.28 L46.55 595.28" class="st16"/>
		</g>
		<g id="shape281-185" v:mID="281" v:groupContext="shape" transform="translate(1690.02,303.778) rotate(90)">
			<title>Planilha.281</title>
			<path d="M6.68 595.28 L7.04 595.28 L16.54 595.28" class="st6"/>
		</g>
		<g id="shape283-190" v:mID="283" v:groupContext="shape" transform="translate(1933.8,303.778) rotate(90)">
			<title>Planilha.283</title>
			<path d="M0 595.28 L114.33 595.28" class="st17"/>
		</g>
		<g id="shape284-193" v:mID="284" v:groupContext="shape" transform="translate(1913.95,303.778) rotate(90)">
			<title>Planilha.284</title>
			<path d="M0 595.28 L88.82 595.28" class="st17"/>
		</g>
		<g id="shape285-196" v:mID="285" v:groupContext="shape" transform="translate(516.472,225.826) rotate(-90)">
			<title>Planilha.285</title>
			<path d="M0 595.28 L26.37 595.28" class="st14"/>
		</g>
		<g id="shape286-201" v:mID="286" v:groupContext="shape" transform="translate(729.071,225.433) rotate(-90)">
			<title>Planilha.286</title>
			<path d="M7.68 595.28 L8.04 595.28 L33.84 595.28" class="st16"/>
		</g>
		<g id="shape287-206" v:mID="287" v:groupContext="shape" transform="translate(243.039,-382.418)">
			<title>Planilha.287</title>
			<desc>xgeth_data_out</desc>
			<v:textBlock v:margins="rect(4,4,4,4)" v:tabSpace="42.5197"/>
			<v:textRect cx="75.7332" cy="586.172" width="151.47" height="18.2065"/>
			<rect x="0" y="577.069" width="151.466" height="18.2065" class="st8"/>
			<text x="24.02" y="590.97" class="st9" v:langID="1033"><v:paragraph v:horizAlign="1"/><v:tabList/>xgeth_data_out</text>		</g>
		<g id="shape288-209" v:mID="288" v:groupContext="shape" transform="translate(294.254,-298.139)">
			<title>Planilha.288</title>
			<rect x="0" y="575.276" width="96.1307" height="20" class="st8"/>
		</g>
		<g id="shape289-211" v:mID="289" v:groupContext="shape" transform="translate(233.949,-350.779) rotate(0.302234)">
			<title>Planilha.289</title>
			<path d="M0 595.28 L154.17 595.28" class="st11"/>
		</g>
		<g id="shape290-216" v:mID="290" v:groupContext="shape" transform="translate(244.087,-350.739)">
			<title>Planilha.290</title>
			<desc>xgeth_addr_in</desc>
			<v:textBlock v:margins="rect(4,4,4,4)" v:tabSpace="42.5197"/>
			<v:textRect cx="75.7332" cy="585.276" width="151.47" height="20"/>
			<rect x="0" y="575.276" width="151.466" height="20" class="st8"/>
			<text x="28.6" y="590.08" class="st9" v:langID="1033"><v:paragraph v:horizAlign="1"/><v:tabList/>xgeth_addr_in</text>		</g>
		<g id="shape291-219" v:mID="291" v:groupContext="shape" transform="translate(231.593,-321.023) rotate(0.075552)">
			<title>Planilha.291</title>
			<path d="M0 595.28 L154.17 595.28" class="st11"/>
		</g>
		<g id="shape292-224" v:mID="292" v:groupContext="shape" transform="translate(225.575,-381.945) rotate(-0.503737)">
			<title>Planilha.292</title>
			<path d="M0 595.28 L154.17 595.28" class="st11"/>
		</g>
		<g id="shape293-229" v:mID="293" v:groupContext="shape" transform="translate(244.087,-406.99)">
			<title>Planilha.293</title>
			<desc>xgeth_data_in</desc>
			<v:textBlock v:margins="rect(4,4,4,4)" v:tabSpace="42.5197"/>
			<v:textRect cx="75.7332" cy="586.172" width="151.47" height="18.2065"/>
			<rect x="0" y="577.069" width="151.466" height="18.2065" class="st8"/>
			<text x="29.09" y="590.97" class="st9" v:langID="1033"><v:paragraph v:horizAlign="1"/><v:tabList/>xgeth_data_in</text>		</g>
		<g id="shape294-232" v:mID="294" v:groupContext="shape" transform="translate(230.249,-406.63)">
			<title>Planilha.294</title>
			<path d="M0 595.28 L154.58 595.28" class="st11"/>
		</g>
		<g id="shape295-237" v:mID="295" v:groupContext="shape" transform="translate(244.617,-322.283)">
			<title>Planilha.295</title>
			<desc>xgeth_addr_out</desc>
			<v:textBlock v:margins="rect(4,4,4,4)" v:tabSpace="42.5197"/>
			<v:textRect cx="75.7332" cy="585.276" width="151.47" height="20"/>
			<rect x="0" y="575.276" width="151.466" height="20" class="st8"/>
			<text x="23.54" y="590.08" class="st9" v:langID="1033"><v:paragraph v:horizAlign="1"/><v:tabList/>xgeth_addr_out</text>		</g>
		<g id="shape296-240" v:mID="296" v:groupContext="shape" transform="translate(244.003,-295.601)">
			<title>Planilha.296</title>
			<desc>xgeth_wen</desc>
			<v:textBlock v:margins="rect(4,4,4,4)" v:tabSpace="42.5197"/>
			<v:textRect cx="75.7332" cy="586.172" width="151.47" height="18.2065"/>
			<rect x="0" y="577.069" width="151.466" height="18.2065" class="st8"/>
			<text x="39.75" y="590.97" class="st9" v:langID="1033"><v:paragraph v:horizAlign="1"/><v:tabList/>xgeth_wen</text>		</g>
		<g id="shape297-243" v:mID="297" v:groupContext="shape" transform="translate(230.173,-295.241)">
			<title>Planilha.297</title>
			<path d="M0 595.28 L154.58 595.28" class="st11"/>
		</g>
		<g id="shape299-248" v:mID="299" v:groupContext="shape" transform="translate(1049.85,406.402) rotate(90)">
			<title>Planilha.299</title>
			<path d="M0 595.28 L89.66 595.28" class="st17"/>
		</g>
		<g id="shape301-251" v:mID="301" v:groupContext="shape" transform="translate(1020.08,406.402) rotate(90)">
			<title>Planilha.301</title>
			<path d="M0 595.28 L118.01 595.28" class="st17"/>
		</g>
		<g id="shape302-254" v:mID="302" v:groupContext="shape" transform="translate(1081.03,406.402) rotate(90)">
			<title>Planilha.302</title>
			<path d="M0 595.28 L61.31 595.28" class="st17"/>
		</g>
		<g id="shape304-257" v:mID="304" v:groupContext="shape" transform="translate(1105.69,405.78) rotate(90)">
			<title>Planilha.304</title>
			<path d="M0 595.28 L33.59 595.28" class="st17"/>
		</g>
		<g id="shape306-260" v:mID="306" v:groupContext="shape" transform="translate(510.413,-155.906) rotate(2.24959E-007)">
			<title>Planilha.306</title>
			<path d="M0 595.28 L167.68 595.28" class="st11"/>
		</g>
		<g id="shape307-265" v:mID="307" v:groupContext="shape" transform="translate(485.752,-127.559)">
			<title>Planilha.307</title>
			<path d="M0 595.28 L168.13 595.28" class="st11"/>
		</g>
		<g id="shape308-270" v:mID="308" v:groupContext="shape" transform="translate(454.571,-99.2126)">
			<title>Planilha.308</title>
			<path d="M0 595.28 L168.71 595.28" class="st11"/>
		</g>
		<g id="shape309-275" v:mID="309" v:groupContext="shape" transform="translate(424.807,-70.8661)">
			<title>Planilha.309</title>
			<path d="M0 595.28 L169.26 595.28" class="st11"/>
		</g>
		<g id="shape310-280" v:mID="310" v:groupContext="shape" transform="translate(511.564,-155.906)">
			<title>Planilha.310</title>
			<desc>mac_source</desc>
			<v:textBlock v:margins="rect(4,4,4,4)" v:tabSpace="42.5197"/>
			<v:textRect cx="83.2417" cy="585.276" width="166.49" height="20"/>
			<rect x="0" y="575.276" width="166.483" height="20" class="st8"/>
			<text x="43.95" y="590.08" class="st9" v:langID="1033"><v:paragraph v:horizAlign="1"/><v:tabList/>mac_source</text>		</g>
		<g id="shape311-283" v:mID="311" v:groupContext="shape" transform="translate(486.709,-128.819)">
			<title>Planilha.311</title>
			<desc>mac_destination</desc>
			<v:textBlock v:margins="rect(4,4,4,4)" v:tabSpace="42.5197"/>
			<v:textRect cx="83.2417" cy="585.276" width="166.49" height="20"/>
			<rect x="0" y="575.276" width="166.483" height="20" class="st8"/>
			<text x="28.85" y="590.08" class="st9" v:langID="1033"><v:paragraph v:horizAlign="1"/><v:tabList/>mac_destination</text>		</g>
		<g id="shape395-286" v:mID="395" v:groupContext="shape" transform="translate(454.871,-100.472)">
			<title>Planilha.395</title>
			<desc>ip_source</desc>
			<v:textBlock v:margins="rect(4,4,4,4)" v:tabSpace="42.5197"/>
			<v:textRect cx="83.2417" cy="585.276" width="166.49" height="20"/>
			<rect x="0" y="575.276" width="166.483" height="20" class="st8"/>
			<text x="51.52" y="590.08" class="st9" v:langID="1033"><v:paragraph v:horizAlign="1"/><v:tabList/>ip_source</text>		</g>
		<g id="shape396-289" v:mID="396" v:groupContext="shape" transform="translate(424.727,-72.126)">
			<title>Planilha.396</title>
			<desc>ip_destination</desc>
			<v:textBlock v:margins="rect(4,4,4,4)" v:tabSpace="42.5197"/>
			<v:textRect cx="83.2417" cy="585.276" width="166.49" height="20"/>
			<rect x="0" y="575.276" width="166.483" height="20" class="st8"/>
			<text x="36.42" y="590.08" class="st9" v:langID="1033"><v:paragraph v:horizAlign="1"/><v:tabList/>ip_destination</text>		</g>
		<g id="shape397-292" v:mID="397" v:groupContext="shape" transform="translate(-341.426,425.197) rotate(-90)">
			<title>Planilha.397</title>
			<path d="M0 595.28 L354.33 595.28" class="st19"/>
		</g>
		<g id="shape398-295" v:mID="398" v:groupContext="shape" transform="translate(-350.772,184.252) rotate(-90)">
			<title>Planilha.398</title>
			<desc>FROM USER</desc>
			<v:textBlock v:margins="rect(4,4,4,4)" v:tabSpace="42.5197"/>
			<v:textRect cx="63.7795" cy="585.276" width="127.56" height="20"/>
			<rect x="0" y="575.276" width="127.559" height="20" class="st8"/>
			<text x="19.01" y="590.68" class="st20" v:langID="1033"><v:paragraph v:horizAlign="1"/><v:tabList/>FROM USER</text>		</g>
		<g id="shape399-298" v:mID="399" v:groupContext="shape" transform="translate(670.252,-101.732)">
			<title>Planilha.399</title>
			<desc>ECHO GENERATOR AND ECHO RECEIVER</desc>
			<v:textBlock v:margins="rect(4,4,4,4)" v:tabSpace="42.5197"/>
			<v:textRect cx="92.8349" cy="585.276" width="185.67" height="20"/>
			<rect x="0" y="575.276" width="185.67" height="20" class="st8"/>
			<text x="25.34" y="579.88" class="st20" v:langID="1033"><v:paragraph v:horizAlign="1"/><v:tabList/>ECHO GENERATOR <tspan
						x="15" dy="1.2em" class="st5">AND ECHO RECEIVER</tspan></text>		</g>
		<g id="shape400-302" v:mID="400" v:groupContext="shape" transform="translate(1894.89,303.778) rotate(90)">
			<title>Planilha.400</title>
			<path d="M6.68 595.28 L7.04 595.28 L63.98 595.28" class="st6"/>
		</g>
		<g id="shape401-307" v:mID="401" v:groupContext="shape" transform="translate(869.247,-227.686) rotate(0.0230076)">
			<title>Planilha.401</title>
			<path d="M0 595.28 L430.6 595.28" class="st17"/>
		</g>
		<g id="shape402-310" v:mID="402" v:groupContext="shape" transform="translate(870.425,-228.031)">
			<title>Planilha.402</title>
			<desc>PKT_sequence</desc>
			<v:textBlock v:margins="rect(4,4,4,4)" v:tabSpace="42.5197"/>
			<v:textRect cx="102.945" cy="585.276" width="205.89" height="20"/>
			<rect x="0" y="575.276" width="205.89" height="20" class="st8"/>
			<text x="49.81" y="590.68" class="st10" v:langID="1033"><v:paragraph v:horizAlign="1"/><v:tabList/>PKT_sequence</text>		</g>
	</g>
</svg>
